<?xml version="1.0" standalone="no"?>
<!DOCTYPE svg PUBLIC "-//W3C//DTD SVG 1.1//EN"
  "http://www.w3.org/Graphics/SVG/1.1/DTD/svg11.dtd">
<!-- Created with matplotlib (http://matplotlib.sourceforge.net/) -->
<svg width="1400pt" height="600pt" viewBox="0 0 1400 600"
   xmlns="http://www.w3.org/2000/svg"
   xmlns:xlink="http://www.w3.org/1999/xlink"
   version="1.1"
   id="svg1">
<g id="figure1">
<g id="patch1">
<path style="fill: #ffffff; stroke: #ffffff; stroke-width: 1.000000; stroke-linejoin: round; stroke-linecap: square;  opacity: 1.000000"  d="M0.000000 600.000000L1400.000000 600.000000L1400.000000 0.000000
L0.000000 0.000000L0.000000 600.000000"/>
</g>
<g id="axes1">
<g id="line2d1">
<defs>
  <clipPath id="pae88289662c10040f13a96717475d515">
<rect x="70.000000" y="48.000000" width="1274.000000" height="516.000000"/>
  </clipPath>
</defs><path style="fill: none; stroke: #aa545a; stroke-width: 5.000000; stroke-linejoin: round; stroke-linecap: square;  opacity: 1.000000" clip-path="url(#pae88289662c10040f13a96717475d515)" d="M117.185185 231.445746L164.370370 262.734111L211.555556 249.095407
L258.740741 252.715029L305.925926 195.293941L353.111111 201.492686
L400.296296 254.523130L447.481481 156.773102L494.666667 159.879035
L541.851852 153.146509L589.037037 149.530114L636.222222 176.033410
L683.407407 197.421482L730.592593 267.744734L777.777778 290.521127
L824.962963 256.041415L872.148148 287.425839L919.333333 275.934009
L966.518519 242.201339L1013.703704 232.284274L1060.888889 238.158288
L1108.074074 94.718109L1155.259259 176.665540L1202.444444 196.694481
L1249.629630 220.131162"/>
<defs><path id="m08ac4dbc767844c1247817e65fe09196" d="M0.000000 6.500000C1.723820 6.500000 3.377269 5.815119 4.596194 4.596194
C5.815119 3.377269 6.500000 1.723820 6.500000 0.000000
C6.500000 -1.723820 5.815119 -3.377269 4.596194 -4.596194
C3.377269 -5.815119 1.723820 -6.500000 0.000000 -6.500000
C-1.723820 -6.500000 -3.377269 -5.815119 -4.596194 -4.596194
C-5.815119 -3.377269 -6.500000 -1.723820 -6.500000 0.000000
C-6.500000 1.723820 -5.815119 3.377269 -4.596194 4.596194
C-3.377269 5.815119 -1.723820 6.500000 0.000000 6.500000z"/></defs>
<g clip-path="url(#pae88289662c10040f13a96717475d515)"><use style="fill: #ffffff; stroke: #aa545a; stroke-width: 5.000000; stroke-linejoin: round; stroke-linecap: butt;  opacity: 1.000000" xlink:href="#m08ac4dbc767844c1247817e65fe09196" x="117.185185" y="231.445746"/>
<use style="fill: #ffffff; stroke: #aa545a; stroke-width: 5.000000; stroke-linejoin: round; stroke-linecap: butt;  opacity: 1.000000" xlink:href="#m08ac4dbc767844c1247817e65fe09196" x="164.370370" y="262.734111"/>
<use style="fill: #ffffff; stroke: #aa545a; stroke-width: 5.000000; stroke-linejoin: round; stroke-linecap: butt;  opacity: 1.000000" xlink:href="#m08ac4dbc767844c1247817e65fe09196" x="211.555556" y="249.095407"/>
<use style="fill: #ffffff; stroke: #aa545a; stroke-width: 5.000000; stroke-linejoin: round; stroke-linecap: butt;  opacity: 1.000000" xlink:href="#m08ac4dbc767844c1247817e65fe09196" x="258.740741" y="252.715029"/>
<use style="fill: #ffffff; stroke: #aa545a; stroke-width: 5.000000; stroke-linejoin: round; stroke-linecap: butt;  opacity: 1.000000" xlink:href="#m08ac4dbc767844c1247817e65fe09196" x="305.925926" y="195.293941"/>
<use style="fill: #ffffff; stroke: #aa545a; stroke-width: 5.000000; stroke-linejoin: round; stroke-linecap: butt;  opacity: 1.000000" xlink:href="#m08ac4dbc767844c1247817e65fe09196" x="353.111111" y="201.492686"/>
<use style="fill: #ffffff; stroke: #aa545a; stroke-width: 5.000000; stroke-linejoin: round; stroke-linecap: butt;  opacity: 1.000000" xlink:href="#m08ac4dbc767844c1247817e65fe09196" x="400.296296" y="254.523130"/>
<use style="fill: #ffffff; stroke: #aa545a; stroke-width: 5.000000; stroke-linejoin: round; stroke-linecap: butt;  opacity: 1.000000" xlink:href="#m08ac4dbc767844c1247817e65fe09196" x="447.481481" y="156.773102"/>
<use style="fill: #ffffff; stroke: #aa545a; stroke-width: 5.000000; stroke-linejoin: round; stroke-linecap: butt;  opacity: 1.000000" xlink:href="#m08ac4dbc767844c1247817e65fe09196" x="494.666667" y="159.879035"/>
<use style="fill: #ffffff; stroke: #aa545a; stroke-width: 5.000000; stroke-linejoin: round; stroke-linecap: butt;  opacity: 1.000000" xlink:href="#m08ac4dbc767844c1247817e65fe09196" x="541.851852" y="153.146509"/>
<use style="fill: #ffffff; stroke: #aa545a; stroke-width: 5.000000; stroke-linejoin: round; stroke-linecap: butt;  opacity: 1.000000" xlink:href="#m08ac4dbc767844c1247817e65fe09196" x="589.037037" y="149.530114"/>
<use style="fill: #ffffff; stroke: #aa545a; stroke-width: 5.000000; stroke-linejoin: round; stroke-linecap: butt;  opacity: 1.000000" xlink:href="#m08ac4dbc767844c1247817e65fe09196" x="636.222222" y="176.033410"/>
<use style="fill: #ffffff; stroke: #aa545a; stroke-width: 5.000000; stroke-linejoin: round; stroke-linecap: butt;  opacity: 1.000000" xlink:href="#m08ac4dbc767844c1247817e65fe09196" x="683.407407" y="197.421482"/>
<use style="fill: #ffffff; stroke: #aa545a; stroke-width: 5.000000; stroke-linejoin: round; stroke-linecap: butt;  opacity: 1.000000" xlink:href="#m08ac4dbc767844c1247817e65fe09196" x="730.592593" y="267.744734"/>
<use style="fill: #ffffff; stroke: #aa545a; stroke-width: 5.000000; stroke-linejoin: round; stroke-linecap: butt;  opacity: 1.000000" xlink:href="#m08ac4dbc767844c1247817e65fe09196" x="777.777778" y="290.521127"/>
<use style="fill: #ffffff; stroke: #aa545a; stroke-width: 5.000000; stroke-linejoin: round; stroke-linecap: butt;  opacity: 1.000000" xlink:href="#m08ac4dbc767844c1247817e65fe09196" x="824.962963" y="256.041415"/>
<use style="fill: #ffffff; stroke: #aa545a; stroke-width: 5.000000; stroke-linejoin: round; stroke-linecap: butt;  opacity: 1.000000" xlink:href="#m08ac4dbc767844c1247817e65fe09196" x="872.148148" y="287.425839"/>
<use style="fill: #ffffff; stroke: #aa545a; stroke-width: 5.000000; stroke-linejoin: round; stroke-linecap: butt;  opacity: 1.000000" xlink:href="#m08ac4dbc767844c1247817e65fe09196" x="919.333333" y="275.934009"/>
<use style="fill: #ffffff; stroke: #aa545a; stroke-width: 5.000000; stroke-linejoin: round; stroke-linecap: butt;  opacity: 1.000000" xlink:href="#m08ac4dbc767844c1247817e65fe09196" x="966.518519" y="242.201339"/>
<use style="fill: #ffffff; stroke: #aa545a; stroke-width: 5.000000; stroke-linejoin: round; stroke-linecap: butt;  opacity: 1.000000" xlink:href="#m08ac4dbc767844c1247817e65fe09196" x="1013.703704" y="232.284274"/>
<use style="fill: #ffffff; stroke: #aa545a; stroke-width: 5.000000; stroke-linejoin: round; stroke-linecap: butt;  opacity: 1.000000" xlink:href="#m08ac4dbc767844c1247817e65fe09196" x="1060.888889" y="238.158288"/>
<use style="fill: #ffffff; stroke: #aa545a; stroke-width: 5.000000; stroke-linejoin: round; stroke-linecap: butt;  opacity: 1.000000" xlink:href="#m08ac4dbc767844c1247817e65fe09196" x="1108.074074" y="94.718109"/>
<use style="fill: #ffffff; stroke: #aa545a; stroke-width: 5.000000; stroke-linejoin: round; stroke-linecap: butt;  opacity: 1.000000" xlink:href="#m08ac4dbc767844c1247817e65fe09196" x="1155.259259" y="176.665540"/>
<use style="fill: #ffffff; stroke: #aa545a; stroke-width: 5.000000; stroke-linejoin: round; stroke-linecap: butt;  opacity: 1.000000" xlink:href="#m08ac4dbc767844c1247817e65fe09196" x="1202.444444" y="196.694481"/>
<use style="fill: #ffffff; stroke: #aa545a; stroke-width: 5.000000; stroke-linejoin: round; stroke-linecap: butt;  opacity: 1.000000" xlink:href="#m08ac4dbc767844c1247817e65fe09196" x="1249.629630" y="220.131162"/>
</g></g>
<g id="matplotlib.axis1">
<g id="xtick1">
<g id="line2d2">
<path style="fill: none; stroke: #555555; stroke-width: 1.000000; stroke-linejoin: round; stroke-linecap: butt; stroke-dasharray: 1.000000,3.000000; stroke-dashoffset: 0.000000; opacity: 1.000000" clip-path="url(#pae88289662c10040f13a96717475d515)" d="M117.185185 564.000000L117.185185 48.000000"/>
</g>
<g id="line2d3">
<defs><path id="m30e32995789d870ad79a2e54c91cf9c6" d="M0.000000 0.000000L0.000000 -4.000000"/></defs>
<g ><use style="fill: none; stroke: #000000; stroke-width: 0.500000; stroke-linejoin: round; stroke-linecap: butt;  opacity: 1.000000" xlink:href="#m30e32995789d870ad79a2e54c91cf9c6" x="117.185185" y="564.000000"/>
</g></g>
<g id="text1">
<defs>
<path id="c_a7ec7f1581c48e6603ad54008c14207a" d="M50.343750 -8.453125l0.000000 8.453125l-47.312500 0.000000q-0.093750 -3.171875 1.015625 -6.109375q1.812500 -4.828125 5.781250 -9.515625q3.984375 -4.687500 11.515625 -10.843750q11.671875 -9.562500 15.765625 -15.156250q4.109375 -5.593750 4.109375 -10.578125q0.000000 -5.218750 -3.750000 -8.796875q-3.734375 -3.593750 -9.734375 -3.593750q-6.343750 0.000000 -10.156250 3.812500q-3.812500 3.796875 -3.859375 10.531250l-9.031250 -0.921875q0.921875 -10.109375 6.968750 -15.406250q6.062500 -5.296875 16.281250 -5.296875q10.296875 0.000000 16.296875 5.718750q6.015625 5.703125 6.015625 14.156250q0.000000 4.296875 -1.765625 8.453125q-1.750000 4.140625 -5.828125 8.734375q-4.078125 4.593750 -13.546875 12.593750q-7.921875 6.640625 -10.171875 9.015625q-2.234375 2.359375 -3.703125 4.750000z"/>
<path id="c_16502e6f65ec6361f518ececdfa42aec" d="M32.328125 -0.000000l0.000000 -17.140625l-31.062500 0.000000l0.000000 -8.062500l32.671875 -46.375000l7.171875 0.000000l0.000000 46.375000l9.671875 0.000000l0.000000 8.062500l-9.671875 0.000000l0.000000 17.140625zM32.328125 -25.203125l0.000000 -32.265625l-22.421875 32.265625z"/>
<path id="c_d41d8cd98f00b204e9800998ecf8427e" d=""/>
<path id="c_1ecd7401a5a4a519fba1c56f42bec99f" d="M6.593750 -0.000000l0.000000 -71.578125l8.781250 0.000000l0.000000 25.671875q6.156250 -7.125000 15.531250 -7.125000q5.765625 0.000000 10.015625 2.281250q4.250000 2.265625 6.078125 6.265625q1.828125 4.000000 1.828125 11.625000l0.000000 32.859375l-8.781250 0.000000l0.000000 -32.859375q0.000000 -6.593750 -2.859375 -9.593750q-2.859375 -3.000000 -8.078125 -3.000000q-3.906250 0.000000 -7.359375 2.031250q-3.437500 2.015625 -4.906250 5.484375q-1.468750 3.468750 -1.468750 9.562500l0.000000 28.375000z"/>
<path id="c_7b35dc0830c9a5ebd9c5012e37b3554f" d="M3.328125 -25.921875q0.000000 -14.406250 8.000000 -21.343750q6.687500 -5.765625 16.312500 -5.765625q10.687500 0.000000 17.468750 7.015625q6.796875 7.000000 6.796875 19.359375q0.000000 10.000000 -3.000000 15.750000q-3.000000 5.734375 -8.750000 8.906250q-5.734375 3.171875 -12.515625 3.171875q-10.890625 0.000000 -17.609375 -6.984375q-6.703125 -6.984375 -6.703125 -20.109375M12.359375 -25.921875q0.000000 9.953125 4.343750 14.906250q4.343750 4.953125 10.937500 4.953125q6.546875 0.000000 10.890625 -4.968750q4.343750 -4.984375 4.343750 -15.187500q0.000000 -9.625000 -4.375000 -14.578125q-4.375000 -4.953125 -10.859375 -4.953125q-6.593750 0.000000 -10.937500 4.937500q-4.343750 4.921875 -4.343750 14.890625"/>
<path id="c_558cebd09a7cc24c350fa94160e77b73" d="M40.578125 -0.000000l0.000000 -7.625000q-6.062500 8.796875 -16.453125 8.796875q-4.593750 0.000000 -8.578125 -1.750000q-3.968750 -1.765625 -5.906250 -4.421875q-1.921875 -2.671875 -2.703125 -6.531250q-0.546875 -2.578125 -0.546875 -8.203125l0.000000 -32.125000l8.796875 0.000000l0.000000 28.765625q0.000000 6.875000 0.531250 9.281250q0.828125 3.453125 3.515625 5.437500q2.687500 1.984375 6.640625 1.984375q3.953125 0.000000 7.421875 -2.031250q3.468750 -2.031250 4.906250 -5.515625q1.453125 -3.500000 1.453125 -10.140625l0.000000 -27.781250l8.781250 0.000000l0.000000 51.859375z"/>
<path id="c_0d849ef44aebdec16b8b34704b04b73f" d="M6.500000 -0.000000l0.000000 -51.859375l7.906250 0.000000l0.000000 7.859375q3.031250 -5.515625 5.593750 -7.265625q2.562500 -1.765625 5.640625 -1.765625q4.437500 0.000000 9.031250 2.828125l-3.031250 8.156250q-3.218750 -1.906250 -6.437500 -1.906250q-2.890625 0.000000 -5.187500 1.734375q-2.296875 1.734375 -3.265625 4.812500q-1.468750 4.687500 -1.468750 10.250000l0.000000 27.156250z"/>
<path id="c_37fe629f139bdb6cf8aa614b087f812c" d="M3.078125 -15.484375l8.687500 -1.359375q0.734375 5.218750 4.078125 8.000000q3.343750 2.781250 9.359375 2.781250q6.046875 0.000000 8.968750 -2.453125q2.937500 -2.468750 2.937500 -5.796875q0.000000 -2.968750 -2.593750 -4.687500q-1.796875 -1.171875 -8.984375 -2.968750q-9.656250 -2.453125 -13.390625 -4.234375q-3.734375 -1.781250 -5.671875 -4.921875q-1.921875 -3.156250 -1.921875 -6.968750q0.000000 -3.453125 1.578125 -6.406250q1.593750 -2.968750 4.328125 -4.921875q2.046875 -1.500000 5.578125 -2.546875q3.546875 -1.062500 7.609375 -1.062500q6.093750 0.000000 10.703125 1.765625q4.625000 1.750000 6.812500 4.765625q2.203125 3.000000 3.031250 8.015625l-8.593750 1.171875q-0.578125 -4.000000 -3.390625 -6.234375q-2.812500 -2.250000 -7.937500 -2.250000q-6.046875 0.000000 -8.640625 2.000000q-2.593750 2.000000 -2.593750 4.687500q0.000000 1.703125 1.078125 3.078125q1.078125 1.406250 3.375000 2.343750q1.312500 0.484375 7.765625 2.234375q9.328125 2.500000 13.000000 4.093750q3.687500 1.578125 5.781250 4.609375q2.109375 3.015625 2.109375 7.515625q0.000000 4.390625 -2.562500 8.281250q-2.562500 3.875000 -7.406250 6.000000q-4.828125 2.125000 -10.921875 2.125000q-10.109375 0.000000 -15.406250 -4.203125q-5.296875 -4.203125 -6.765625 -12.453125"/>
<path id="c_ddaa5e367218a470357296a7ba545dfe" d="M40.437500 -6.390625q-4.890625 4.140625 -9.406250 5.859375q-4.515625 1.703125 -9.687500 1.703125q-8.546875 0.000000 -13.140625 -4.171875q-4.593750 -4.171875 -4.593750 -10.671875q0.000000 -3.812500 1.734375 -6.953125q1.734375 -3.156250 4.546875 -5.062500q2.812500 -1.906250 6.328125 -2.875000q2.578125 -0.687500 7.812500 -1.328125q10.640625 -1.265625 15.671875 -3.015625q0.046875 -1.812500 0.046875 -2.296875q0.000000 -5.375000 -2.500000 -7.578125q-3.359375 -2.968750 -10.000000 -2.968750q-6.203125 0.000000 -9.156250 2.171875q-2.953125 2.171875 -4.375000 7.687500l-8.593750 -1.171875q1.171875 -5.515625 3.859375 -8.906250q2.687500 -3.390625 7.765625 -5.218750q5.078125 -1.843750 11.765625 -1.843750q6.640625 0.000000 10.781250 1.562500q4.156250 1.562500 6.109375 3.937500q1.953125 2.359375 2.734375 5.984375q0.437500 2.234375 0.437500 8.093750l0.000000 11.718750q0.000000 12.265625 0.562500 15.515625q0.562500 3.234375 2.234375 6.218750l-9.187500 0.000000q-1.359375 -2.734375 -1.750000 -6.390625M39.703125 -26.031250q-4.796875 1.953125 -14.359375 3.328125q-5.421875 0.781250 -7.671875 1.765625q-2.234375 0.968750 -3.468750 2.843750q-1.218750 1.875000 -1.218750 4.171875q0.000000 3.515625 2.656250 5.859375q2.671875 2.343750 7.796875 2.343750q5.078125 0.000000 9.031250 -2.218750q3.953125 -2.218750 5.812500 -6.078125q1.421875 -2.984375 1.421875 -8.781250z"/>
<path id="c_942af35282b351d80557a23c0c16bb49" d="M4.984375 4.296875l8.546875 1.265625q0.531250 3.953125 2.968750 5.765625q3.281250 2.437500 8.937500 2.437500q6.109375 0.000000 9.421875 -2.437500q3.328125 -2.437500 4.500000 -6.828125q0.687500 -2.687500 0.625000 -11.281250q-5.750000 6.781250 -14.343750 6.781250q-10.703125 0.000000 -16.562500 -7.718750q-5.859375 -7.718750 -5.859375 -18.500000q0.000000 -7.421875 2.687500 -13.687500q2.687500 -6.281250 7.781250 -9.703125q5.109375 -3.421875 12.000000 -3.421875q9.171875 0.000000 15.140625 7.421875l0.000000 -6.250000l8.093750 0.000000l0.000000 44.828125q0.000000 12.109375 -2.468750 17.156250q-2.453125 5.062500 -7.812500 7.984375q-5.343750 2.937500 -13.156250 2.937500q-9.265625 0.000000 -14.984375 -4.171875q-5.718750 -4.171875 -5.515625 -12.578125M12.250000 -26.859375q0.000000 10.203125 4.046875 14.890625q4.062500 4.687500 10.171875 4.687500q6.046875 0.000000 10.140625 -4.656250q4.109375 -4.671875 4.109375 -14.625000q0.000000 -9.515625 -4.218750 -14.343750q-4.218750 -4.843750 -10.187500 -4.843750q-5.859375 0.000000 -9.968750 4.765625q-4.093750 4.750000 -4.093750 14.125000"/>
</defs>
<g style="fill: #000000; opacity: 1.000000" transform="translate(12.794560,593.875000)scale(0.360000)">
<use xlink:href="#c_a7ec7f1581c48e6603ad54008c14207a"/>
<use xlink:href="#c_16502e6f65ec6361f518ececdfa42aec" x="55.615234"/>
<use xlink:href="#c_d41d8cd98f00b204e9800998ecf8427e" x="111.230469"/>
<use xlink:href="#c_1ecd7401a5a4a519fba1c56f42bec99f" x="139.013672"/>
<use xlink:href="#c_7b35dc0830c9a5ebd9c5012e37b3554f" x="194.628906"/>
<use xlink:href="#c_558cebd09a7cc24c350fa94160e77b73" x="250.244141"/>
<use xlink:href="#c_0d849ef44aebdec16b8b34704b04b73f" x="305.859375"/>
<use xlink:href="#c_37fe629f139bdb6cf8aa614b087f812c" x="339.160156"/>
<use xlink:href="#c_d41d8cd98f00b204e9800998ecf8427e" x="389.160156"/>
<use xlink:href="#c_ddaa5e367218a470357296a7ba545dfe" x="416.943359"/>
<use xlink:href="#c_942af35282b351d80557a23c0c16bb49" x="472.558594"/>
<use xlink:href="#c_7b35dc0830c9a5ebd9c5012e37b3554f" x="528.173828"/>
</g>
</g>
</g>
<g id="xtick2">
<g id="line2d4">
<path style="fill: none; stroke: #555555; stroke-width: 1.000000; stroke-linejoin: round; stroke-linecap: butt; stroke-dasharray: 1.000000,3.000000; stroke-dashoffset: 0.000000; opacity: 1.000000" clip-path="url(#pae88289662c10040f13a96717475d515)" d="M494.666667 564.000000L494.666667 48.000000"/>
</g>
<g id="line2d5">
<g ><use style="fill: none; stroke: #000000; stroke-width: 0.500000; stroke-linejoin: round; stroke-linecap: butt;  opacity: 1.000000" xlink:href="#m30e32995789d870ad79a2e54c91cf9c6" x="494.666667" y="564.000000"/>
</g></g>
<g id="text2">
<defs>
<path id="c_72c59cf671978aab4f9757f107511077" d="M37.250000 -0.000000l-8.781250 0.000000l0.000000 -56.000000q-3.171875 3.015625 -8.328125 6.046875q-5.156250 3.031250 -9.250000 4.546875l0.000000 -8.500000q7.375000 -3.468750 12.890625 -8.390625q5.515625 -4.937500 7.812500 -9.578125l5.656250 0.000000z"/>
<path id="c_365c0c1086255689078be262ab150854" d="M49.750000 -54.046875l-8.734375 0.671875q-1.171875 -5.171875 -3.312500 -7.515625q-3.578125 -3.765625 -8.796875 -3.765625q-4.203125 0.000000 -7.375000 2.343750q-4.140625 3.031250 -6.546875 8.843750q-2.390625 5.812500 -2.484375 16.546875q3.171875 -4.828125 7.765625 -7.171875q4.593750 -2.343750 9.625000 -2.343750q8.781250 0.000000 14.953125 6.468750q6.187500 6.468750 6.187500 16.718750q0.000000 6.750000 -2.906250 12.531250q-2.906250 5.781250 -7.984375 8.859375q-5.078125 3.078125 -11.531250 3.078125q-10.984375 0.000000 -17.921875 -8.078125q-6.921875 -8.078125 -6.921875 -26.640625q0.000000 -20.750000 7.656250 -30.171875q6.687500 -8.203125 18.015625 -8.203125q8.453125 0.000000 13.843750 4.734375q5.406250 4.734375 6.468750 13.093750M13.875000 -23.187500q0.000000 4.531250 1.921875 8.687500q1.921875 4.140625 5.390625 6.328125q3.468750 2.171875 7.281250 2.171875q5.562500 0.000000 9.562500 -4.484375q4.015625 -4.500000 4.015625 -12.218750q0.000000 -7.421875 -3.968750 -11.687500q-3.953125 -4.281250 -9.953125 -4.281250q-5.953125 0.000000 -10.109375 4.281250q-4.140625 4.265625 -4.140625 11.203125"/>
</defs>
<g style="fill: #000000; opacity: 1.000000" transform="translate(390.276042,593.875000)scale(0.360000)">
<use xlink:href="#c_72c59cf671978aab4f9757f107511077"/>
<use xlink:href="#c_365c0c1086255689078be262ab150854" x="55.615234"/>
<use xlink:href="#c_d41d8cd98f00b204e9800998ecf8427e" x="111.230469"/>
<use xlink:href="#c_1ecd7401a5a4a519fba1c56f42bec99f" x="139.013672"/>
<use xlink:href="#c_7b35dc0830c9a5ebd9c5012e37b3554f" x="194.628906"/>
<use xlink:href="#c_558cebd09a7cc24c350fa94160e77b73" x="250.244141"/>
<use xlink:href="#c_0d849ef44aebdec16b8b34704b04b73f" x="305.859375"/>
<use xlink:href="#c_37fe629f139bdb6cf8aa614b087f812c" x="339.160156"/>
<use xlink:href="#c_d41d8cd98f00b204e9800998ecf8427e" x="389.160156"/>
<use xlink:href="#c_ddaa5e367218a470357296a7ba545dfe" x="416.943359"/>
<use xlink:href="#c_942af35282b351d80557a23c0c16bb49" x="472.558594"/>
<use xlink:href="#c_7b35dc0830c9a5ebd9c5012e37b3554f" x="528.173828"/>
</g>
</g>
</g>
<g id="xtick3">
<g id="line2d6">
<path style="fill: none; stroke: #555555; stroke-width: 1.000000; stroke-linejoin: round; stroke-linecap: butt; stroke-dasharray: 1.000000,3.000000; stroke-dashoffset: 0.000000; opacity: 1.000000" clip-path="url(#pae88289662c10040f13a96717475d515)" d="M872.148148 564.000000L872.148148 48.000000"/>
</g>
<g id="line2d7">
<g ><use style="fill: none; stroke: #000000; stroke-width: 0.500000; stroke-linejoin: round; stroke-linecap: butt;  opacity: 1.000000" xlink:href="#m30e32995789d870ad79a2e54c91cf9c6" x="872.148148" y="564.000000"/>
</g></g>
<g id="text3">
<defs>
<path id="c_9e21411eefed339632dc4e534c173910" d="M17.671875 -38.812500q-5.468750 -2.015625 -8.109375 -5.718750q-2.625000 -3.718750 -2.625000 -8.890625q0.000000 -7.812500 5.609375 -13.125000q5.625000 -5.328125 14.937500 -5.328125q9.375000 0.000000 15.093750 5.453125q5.718750 5.437500 5.718750 13.250000q0.000000 4.984375 -2.625000 8.671875q-2.609375 3.671875 -7.921875 5.687500q6.593750 2.140625 10.031250 6.937500q3.437500 4.781250 3.437500 11.421875q0.000000 9.171875 -6.500000 15.421875q-6.484375 6.250000 -17.078125 6.250000q-10.593750 0.000000 -17.093750 -6.265625q-6.500000 -6.281250 -6.500000 -15.656250q0.000000 -6.984375 3.546875 -11.687500q3.546875 -4.718750 10.078125 -6.421875M15.921875 -53.718750q0.000000 5.078125 3.265625 8.312500q3.281250 3.218750 8.500000 3.218750q5.078125 0.000000 8.328125 -3.187500q3.250000 -3.203125 3.250000 -7.843750q0.000000 -4.843750 -3.359375 -8.140625q-3.343750 -3.296875 -8.312500 -3.296875q-5.031250 0.000000 -8.359375 3.234375q-3.312500 3.218750 -3.312500 7.703125M13.093750 -20.656250q0.000000 3.765625 1.781250 7.281250q1.781250 3.515625 5.296875 5.453125q3.515625 1.921875 7.562500 1.921875q6.296875 0.000000 10.390625 -4.046875q4.109375 -4.062500 4.109375 -10.312500q0.000000 -6.343750 -4.218750 -10.500000q-4.218750 -4.156250 -10.578125 -4.156250q-6.203125 0.000000 -10.281250 4.109375q-4.062500 4.093750 -4.062500 10.250000"/>
</defs>
<g style="fill: #000000; opacity: 1.000000" transform="translate(777.765336,593.875000)scale(0.360000)">
<use xlink:href="#c_9e21411eefed339632dc4e534c173910"/>
<use xlink:href="#c_d41d8cd98f00b204e9800998ecf8427e" x="55.615234"/>
<use xlink:href="#c_1ecd7401a5a4a519fba1c56f42bec99f" x="83.398438"/>
<use xlink:href="#c_7b35dc0830c9a5ebd9c5012e37b3554f" x="139.013672"/>
<use xlink:href="#c_558cebd09a7cc24c350fa94160e77b73" x="194.628906"/>
<use xlink:href="#c_0d849ef44aebdec16b8b34704b04b73f" x="250.244141"/>
<use xlink:href="#c_37fe629f139bdb6cf8aa614b087f812c" x="283.544922"/>
<use xlink:href="#c_d41d8cd98f00b204e9800998ecf8427e" x="333.544922"/>
<use xlink:href="#c_ddaa5e367218a470357296a7ba545dfe" x="361.328125"/>
<use xlink:href="#c_942af35282b351d80557a23c0c16bb49" x="416.943359"/>
<use xlink:href="#c_7b35dc0830c9a5ebd9c5012e37b3554f" x="472.558594"/>
</g>
</g>
</g>
<g id="xtick4">
<g id="line2d8">
<path style="fill: none; stroke: #555555; stroke-width: 1.000000; stroke-linejoin: round; stroke-linecap: butt; stroke-dasharray: 1.000000,3.000000; stroke-dashoffset: 0.000000; opacity: 1.000000" clip-path="url(#pae88289662c10040f13a96717475d515)" d="M1249.629630 564.000000L1249.629630 48.000000"/>
</g>
<g id="line2d9">
<g ><use style="fill: none; stroke: #000000; stroke-width: 0.500000; stroke-linejoin: round; stroke-linecap: butt;  opacity: 1.000000" xlink:href="#m30e32995789d870ad79a2e54c91cf9c6" x="1249.629630" y="564.000000"/>
</g></g>
<g id="text4">
<defs>
<path id="c_c63e313c3da876077b62561e94932799" d="M4.156250 -35.296875q0.000000 -12.703125 2.609375 -20.437500q2.609375 -7.750000 7.750000 -11.937500q5.156250 -4.203125 12.968750 -4.203125q5.765625 0.000000 10.109375 2.328125q4.343750 2.312500 7.171875 6.687500q2.843750 4.359375 4.453125 10.640625q1.609375 6.265625 1.609375 16.921875q0.000000 12.593750 -2.593750 20.328125q-2.578125 7.734375 -7.734375 11.968750q-5.140625 4.218750 -13.015625 4.218750q-10.343750 0.000000 -16.250000 -7.421875q-7.078125 -8.937500 -7.078125 -29.093750M13.187500 -35.296875q0.000000 17.625000 4.125000 23.468750q4.125000 5.828125 10.171875 5.828125q6.062500 0.000000 10.187500 -5.859375q4.125000 -5.859375 4.125000 -23.437500q0.000000 -17.687500 -4.125000 -23.484375q-4.125000 -5.812500 -10.281250 -5.812500q-6.046875 0.000000 -9.671875 5.125000q-4.531250 6.531250 -4.531250 24.171875"/>
</defs>
<g style="fill: #000000; opacity: 1.000000" transform="translate(1155.246817,593.875000)scale(0.360000)">
<use xlink:href="#c_c63e313c3da876077b62561e94932799"/>
<use xlink:href="#c_d41d8cd98f00b204e9800998ecf8427e" x="55.615234"/>
<use xlink:href="#c_1ecd7401a5a4a519fba1c56f42bec99f" x="83.398438"/>
<use xlink:href="#c_7b35dc0830c9a5ebd9c5012e37b3554f" x="139.013672"/>
<use xlink:href="#c_558cebd09a7cc24c350fa94160e77b73" x="194.628906"/>
<use xlink:href="#c_0d849ef44aebdec16b8b34704b04b73f" x="250.244141"/>
<use xlink:href="#c_37fe629f139bdb6cf8aa614b087f812c" x="283.544922"/>
<use xlink:href="#c_d41d8cd98f00b204e9800998ecf8427e" x="333.544922"/>
<use xlink:href="#c_ddaa5e367218a470357296a7ba545dfe" x="361.328125"/>
<use xlink:href="#c_942af35282b351d80557a23c0c16bb49" x="416.943359"/>
<use xlink:href="#c_7b35dc0830c9a5ebd9c5012e37b3554f" x="472.558594"/>
</g>
</g>
</g>
</g>
<g id="matplotlib.axis2">
<g id="ytick1">
<g id="line2d10">
<path style="fill: none; stroke: #555555; stroke-width: 1.000000; stroke-linejoin: round; stroke-linecap: square;  opacity: 1.000000" clip-path="url(#pae88289662c10040f13a96717475d515)" d="M70.000000 561.899194L1344.000000 561.899194"/>
</g>
<g id="text5">
<g style="fill: #000000; opacity: 1.000000" transform="translate(49.203125,574.617944)scale(0.360000)">
<use xlink:href="#c_c63e313c3da876077b62561e94932799"/>
</g>
</g>
</g>
<g id="ytick2">
<g id="line2d11">
<path style="fill: none; stroke: #555555; stroke-width: 1.000000; stroke-linejoin: round; stroke-linecap: square;  opacity: 1.000000" clip-path="url(#pae88289662c10040f13a96717475d515)" d="M70.000000 477.866960L1344.000000 477.866960"/>
</g>
<g id="text6">
<g style="fill: #000000; opacity: 1.000000" transform="translate(28.750000,490.585710)scale(0.360000)">
<use xlink:href="#c_a7ec7f1581c48e6603ad54008c14207a"/>
<use xlink:href="#c_c63e313c3da876077b62561e94932799" x="55.615234"/>
</g>
</g>
</g>
<g id="ytick3">
<g id="line2d12">
<path style="fill: none; stroke: #555555; stroke-width: 1.000000; stroke-linejoin: round; stroke-linecap: square;  opacity: 1.000000" clip-path="url(#pae88289662c10040f13a96717475d515)" d="M70.000000 393.834726L1344.000000 393.834726"/>
</g>
<g id="text7">
<g style="fill: #000000; opacity: 1.000000" transform="translate(28.140625,406.553476)scale(0.360000)">
<use xlink:href="#c_16502e6f65ec6361f518ececdfa42aec"/>
<use xlink:href="#c_c63e313c3da876077b62561e94932799" x="55.615234"/>
</g>
</g>
</g>
<g id="ytick4">
<g id="line2d13">
<path style="fill: none; stroke: #555555; stroke-width: 1.000000; stroke-linejoin: round; stroke-linecap: square;  opacity: 1.000000" clip-path="url(#pae88289662c10040f13a96717475d515)" d="M70.000000 309.802492L1344.000000 309.802492"/>
</g>
<g id="text8">
<g style="fill: #000000; opacity: 1.000000" transform="translate(29.046875,322.521242)scale(0.360000)">
<use xlink:href="#c_365c0c1086255689078be262ab150854"/>
<use xlink:href="#c_c63e313c3da876077b62561e94932799" x="55.615234"/>
</g>
</g>
</g>
<g id="ytick5">
<g id="line2d14">
<path style="fill: none; stroke: #555555; stroke-width: 1.000000; stroke-linejoin: round; stroke-linecap: square;  opacity: 1.000000" clip-path="url(#pae88289662c10040f13a96717475d515)" d="M70.000000 225.770258L1344.000000 225.770258"/>
</g>
<g id="text9">
<g style="fill: #000000; opacity: 1.000000" transform="translate(29.140625,238.489008)scale(0.360000)">
<use xlink:href="#c_9e21411eefed339632dc4e534c173910"/>
<use xlink:href="#c_c63e313c3da876077b62561e94932799" x="55.615234"/>
</g>
</g>
</g>
<g id="ytick6">
<g id="line2d15">
<path style="fill: none; stroke: #555555; stroke-width: 1.000000; stroke-linejoin: round; stroke-linecap: square;  opacity: 1.000000" clip-path="url(#pae88289662c10040f13a96717475d515)" d="M70.000000 141.738024L1344.000000 141.738024"/>
</g>
<g id="text10">
<g style="fill: #000000; opacity: 1.000000" transform="translate(11.593750,154.456774)scale(0.360000)">
<use xlink:href="#c_72c59cf671978aab4f9757f107511077"/>
<use xlink:href="#c_c63e313c3da876077b62561e94932799" x="55.615234"/>
<use xlink:href="#c_c63e313c3da876077b62561e94932799" x="111.230469"/>
</g>
</g>
</g>
<g id="ytick7">
<g id="line2d16">
<path style="fill: none; stroke: #555555; stroke-width: 1.000000; stroke-linejoin: round; stroke-linecap: square;  opacity: 1.000000" clip-path="url(#pae88289662c10040f13a96717475d515)" d="M70.000000 57.705790L1344.000000 57.705790"/>
</g>
<g id="text11">
<g style="fill: #000000; opacity: 1.000000" transform="translate(11.593750,70.424540)scale(0.360000)">
<use xlink:href="#c_72c59cf671978aab4f9757f107511077"/>
<use xlink:href="#c_a7ec7f1581c48e6603ad54008c14207a" x="55.615234"/>
<use xlink:href="#c_c63e313c3da876077b62561e94932799" x="111.230469"/>
</g>
</g>
</g>
</g>
<g id="text12">
<defs>
<path id="c_a2714bbf4c498d92dd39c98d755309c1" d="M25.921875 -0.000000l0.000000 -63.140625l-23.578125 0.000000l0.000000 -8.437500l56.734375 0.000000l0.000000 8.437500l-23.671875 0.000000l0.000000 63.140625z"/>
<path id="c_ef82da0bee22b244d15ddd77dd6aeba9" d="M6.593750 -0.000000l0.000000 -51.859375l7.906250 0.000000l0.000000 7.375000q5.718750 -8.546875 16.500000 -8.546875q4.687500 0.000000 8.625000 1.687500q3.937500 1.687500 5.890625 4.421875q1.953125 2.734375 2.734375 6.484375q0.484375 2.453125 0.484375 8.546875l0.000000 31.890625l-8.796875 0.000000l0.000000 -31.546875q0.000000 -5.375000 -1.031250 -8.031250q-1.015625 -2.656250 -3.625000 -4.234375q-2.609375 -1.593750 -6.125000 -1.593750q-5.625000 0.000000 -9.703125 3.562500q-4.078125 3.562500 -4.078125 13.515625l0.000000 28.328125z"/>
<path id="c_75c92566de225071250a4a257a4d416e" d="M40.234375 -0.000000l0.000000 -6.546875q-4.937500 7.718750 -14.500000 7.718750q-6.203125 0.000000 -11.406250 -3.421875q-5.203125 -3.421875 -8.062500 -9.546875q-2.843750 -6.125000 -2.843750 -14.078125q0.000000 -7.765625 2.578125 -14.093750q2.593750 -6.328125 7.765625 -9.687500q5.187500 -3.375000 11.578125 -3.375000q4.687500 0.000000 8.343750 1.984375q3.671875 1.968750 5.968750 5.140625l0.000000 -25.671875l8.734375 0.000000l0.000000 71.578125zM12.453125 -25.875000q0.000000 9.953125 4.187500 14.890625q4.203125 4.921875 9.921875 4.921875q5.765625 0.000000 9.781250 -4.703125q4.031250 -4.718750 4.031250 -14.375000q0.000000 -10.656250 -4.109375 -15.625000q-4.093750 -4.984375 -10.093750 -4.984375q-5.859375 0.000000 -9.796875 4.781250q-3.921875 4.781250 -3.921875 15.093750"/>
<path id="c_a1842ac11a01a4a9efebc441545cf8f3" d="M8.687500 -0.000000l0.000000 -45.015625l-7.765625 0.000000l0.000000 -6.843750l7.765625 0.000000l0.000000 -5.515625q0.000000 -5.218750 0.937500 -7.765625q1.265625 -3.421875 4.453125 -5.531250q3.203125 -2.125000 8.968750 -2.125000q3.718750 0.000000 8.203125 0.875000l-1.312500 7.656250q-2.734375 -0.484375 -5.187500 -0.484375q-4.000000 0.000000 -5.656250 1.718750q-1.656250 1.703125 -1.656250 6.390625l0.000000 4.781250l10.109375 0.000000l0.000000 6.843750l-10.109375 0.000000l0.000000 45.015625z"/>
<path id="c_1e1fa5b67a530de837491c83e91056d3" d="M8.015625 -0.000000l0.000000 -71.578125l9.468750 0.000000l0.000000 29.390625l37.203125 0.000000l0.000000 -29.390625l9.468750 0.000000l0.000000 71.578125l-9.468750 0.000000l0.000000 -33.734375l-37.203125 0.000000l0.000000 33.734375z"/>
<path id="c_a1de2651640294cc71fd7ece9f6eee39" d="M0.000000 1.218750l20.750000 -74.015625l7.031250 0.000000l-20.703125 74.015625z"/>
</defs>
<g style="fill: #000000; opacity: 1.000000" transform="translate(6.300000,37.242500)scale(0.360000)">
<use xlink:href="#c_a2714bbf4c498d92dd39c98d755309c1"/>
<use xlink:href="#c_1ecd7401a5a4a519fba1c56f42bec99f" x="61.083984"/>
<use xlink:href="#c_7b35dc0830c9a5ebd9c5012e37b3554f" x="116.699219"/>
<use xlink:href="#c_558cebd09a7cc24c350fa94160e77b73" x="172.314453"/>
<use xlink:href="#c_37fe629f139bdb6cf8aa614b087f812c" x="227.929688"/>
<use xlink:href="#c_ddaa5e367218a470357296a7ba545dfe" x="277.929688"/>
<use xlink:href="#c_ef82da0bee22b244d15ddd77dd6aeba9" x="333.544922"/>
<use xlink:href="#c_75c92566de225071250a4a257a4d416e" x="389.160156"/>
<use xlink:href="#c_37fe629f139bdb6cf8aa614b087f812c" x="444.775391"/>
<use xlink:href="#c_d41d8cd98f00b204e9800998ecf8427e" x="494.775391"/>
<use xlink:href="#c_7b35dc0830c9a5ebd9c5012e37b3554f" x="522.558594"/>
<use xlink:href="#c_a1842ac11a01a4a9efebc441545cf8f3" x="578.173828"/>
<use xlink:href="#c_d41d8cd98f00b204e9800998ecf8427e" x="605.957031"/>
<use xlink:href="#c_1e1fa5b67a530de837491c83e91056d3" x="633.740234"/>
<use xlink:href="#c_7b35dc0830c9a5ebd9c5012e37b3554f" x="705.957031"/>
<use xlink:href="#c_558cebd09a7cc24c350fa94160e77b73" x="761.572266"/>
<use xlink:href="#c_0d849ef44aebdec16b8b34704b04b73f" x="817.187500"/>
<use xlink:href="#c_37fe629f139bdb6cf8aa614b087f812c" x="850.488281"/>
<use xlink:href="#c_a1de2651640294cc71fd7ece9f6eee39" x="900.488281"/>
<use xlink:href="#c_1e1fa5b67a530de837491c83e91056d3" x="928.271484"/>
<use xlink:href="#c_7b35dc0830c9a5ebd9c5012e37b3554f" x="1000.488281"/>
<use xlink:href="#c_558cebd09a7cc24c350fa94160e77b73" x="1056.103516"/>
<use xlink:href="#c_0d849ef44aebdec16b8b34704b04b73f" x="1111.718750"/>
</g>
</g>
</g>
</g>
</svg>
