<?xml version="1.0" standalone="no"?>
<!DOCTYPE svg PUBLIC "-//W3C//DTD SVG 1.1//EN"
  "http://www.w3.org/Graphics/SVG/1.1/DTD/svg11.dtd">
<!-- Created with matplotlib (http://matplotlib.sourceforge.net/) -->
<svg width="1400pt" height="600pt" viewBox="0 0 1400 600"
   xmlns="http://www.w3.org/2000/svg"
   xmlns:xlink="http://www.w3.org/1999/xlink"
   version="1.1"
   id="svg1">
<g id="figure1">
<g id="patch1">
<path style="fill: #ffffff; stroke: #ffffff; stroke-width: 1.000000; stroke-linejoin: round; stroke-linecap: square;  opacity: 1.000000"  d="M0.000000 600.000000L1400.000000 600.000000L1400.000000 0.000000
L0.000000 0.000000L0.000000 600.000000"/>
</g>
<g id="axes1">
<g id="line2d1">
<defs>
  <clipPath id="pae88289662c10040f13a96717475d515">
<rect x="70.000000" y="48.000000" width="1274.000000" height="516.000000"/>
  </clipPath>
</defs><path style="fill: none; stroke: #3a617b; stroke-width: 5.000000; stroke-linejoin: round; stroke-linecap: square;  opacity: 1.000000" clip-path="url(#pae88289662c10040f13a96717475d515)" d="M117.185185 172.770360L164.370370 237.636399L211.555556 152.281441
L258.740741 236.114043L305.925926 94.526952L353.111111 240.155348
L400.296296 382.734270L447.481481 337.679083L494.666667 258.193524
L541.851852 291.823061L589.037037 247.191444L636.222222 338.526613
L683.407407 397.045169L730.592593 393.038005L777.777778 197.253262
L824.962963 218.718782L872.148148 163.187929L919.333333 173.799602
L966.518519 155.330669L1013.703704 191.639198L1060.888889 173.808368
L1108.074074 116.625559L1155.259259 137.510103L1202.444444 159.301214
L1249.629630 291.324381"/>
<defs><path id="m08ac4dbc767844c1247817e65fe09196" d="M0.000000 6.500000C1.723820 6.500000 3.377269 5.815119 4.596194 4.596194
C5.815119 3.377269 6.500000 1.723820 6.500000 0.000000
C6.500000 -1.723820 5.815119 -3.377269 4.596194 -4.596194
C3.377269 -5.815119 1.723820 -6.500000 0.000000 -6.500000
C-1.723820 -6.500000 -3.377269 -5.815119 -4.596194 -4.596194
C-5.815119 -3.377269 -6.500000 -1.723820 -6.500000 0.000000
C-6.500000 1.723820 -5.815119 3.377269 -4.596194 4.596194
C-3.377269 5.815119 -1.723820 6.500000 0.000000 6.500000z"/></defs>
<g clip-path="url(#pae88289662c10040f13a96717475d515)"><use style="fill: #ffffff; stroke: #3a617b; stroke-width: 5.000000; stroke-linejoin: round; stroke-linecap: butt;  opacity: 1.000000" xlink:href="#m08ac4dbc767844c1247817e65fe09196" x="117.185185" y="172.770360"/>
<use style="fill: #ffffff; stroke: #3a617b; stroke-width: 5.000000; stroke-linejoin: round; stroke-linecap: butt;  opacity: 1.000000" xlink:href="#m08ac4dbc767844c1247817e65fe09196" x="164.370370" y="237.636399"/>
<use style="fill: #ffffff; stroke: #3a617b; stroke-width: 5.000000; stroke-linejoin: round; stroke-linecap: butt;  opacity: 1.000000" xlink:href="#m08ac4dbc767844c1247817e65fe09196" x="211.555556" y="152.281441"/>
<use style="fill: #ffffff; stroke: #3a617b; stroke-width: 5.000000; stroke-linejoin: round; stroke-linecap: butt;  opacity: 1.000000" xlink:href="#m08ac4dbc767844c1247817e65fe09196" x="258.740741" y="236.114043"/>
<use style="fill: #ffffff; stroke: #3a617b; stroke-width: 5.000000; stroke-linejoin: round; stroke-linecap: butt;  opacity: 1.000000" xlink:href="#m08ac4dbc767844c1247817e65fe09196" x="305.925926" y="94.526952"/>
<use style="fill: #ffffff; stroke: #3a617b; stroke-width: 5.000000; stroke-linejoin: round; stroke-linecap: butt;  opacity: 1.000000" xlink:href="#m08ac4dbc767844c1247817e65fe09196" x="353.111111" y="240.155348"/>
<use style="fill: #ffffff; stroke: #3a617b; stroke-width: 5.000000; stroke-linejoin: round; stroke-linecap: butt;  opacity: 1.000000" xlink:href="#m08ac4dbc767844c1247817e65fe09196" x="400.296296" y="382.734270"/>
<use style="fill: #ffffff; stroke: #3a617b; stroke-width: 5.000000; stroke-linejoin: round; stroke-linecap: butt;  opacity: 1.000000" xlink:href="#m08ac4dbc767844c1247817e65fe09196" x="447.481481" y="337.679083"/>
<use style="fill: #ffffff; stroke: #3a617b; stroke-width: 5.000000; stroke-linejoin: round; stroke-linecap: butt;  opacity: 1.000000" xlink:href="#m08ac4dbc767844c1247817e65fe09196" x="494.666667" y="258.193524"/>
<use style="fill: #ffffff; stroke: #3a617b; stroke-width: 5.000000; stroke-linejoin: round; stroke-linecap: butt;  opacity: 1.000000" xlink:href="#m08ac4dbc767844c1247817e65fe09196" x="541.851852" y="291.823061"/>
<use style="fill: #ffffff; stroke: #3a617b; stroke-width: 5.000000; stroke-linejoin: round; stroke-linecap: butt;  opacity: 1.000000" xlink:href="#m08ac4dbc767844c1247817e65fe09196" x="589.037037" y="247.191444"/>
<use style="fill: #ffffff; stroke: #3a617b; stroke-width: 5.000000; stroke-linejoin: round; stroke-linecap: butt;  opacity: 1.000000" xlink:href="#m08ac4dbc767844c1247817e65fe09196" x="636.222222" y="338.526613"/>
<use style="fill: #ffffff; stroke: #3a617b; stroke-width: 5.000000; stroke-linejoin: round; stroke-linecap: butt;  opacity: 1.000000" xlink:href="#m08ac4dbc767844c1247817e65fe09196" x="683.407407" y="397.045169"/>
<use style="fill: #ffffff; stroke: #3a617b; stroke-width: 5.000000; stroke-linejoin: round; stroke-linecap: butt;  opacity: 1.000000" xlink:href="#m08ac4dbc767844c1247817e65fe09196" x="730.592593" y="393.038005"/>
<use style="fill: #ffffff; stroke: #3a617b; stroke-width: 5.000000; stroke-linejoin: round; stroke-linecap: butt;  opacity: 1.000000" xlink:href="#m08ac4dbc767844c1247817e65fe09196" x="777.777778" y="197.253262"/>
<use style="fill: #ffffff; stroke: #3a617b; stroke-width: 5.000000; stroke-linejoin: round; stroke-linecap: butt;  opacity: 1.000000" xlink:href="#m08ac4dbc767844c1247817e65fe09196" x="824.962963" y="218.718782"/>
<use style="fill: #ffffff; stroke: #3a617b; stroke-width: 5.000000; stroke-linejoin: round; stroke-linecap: butt;  opacity: 1.000000" xlink:href="#m08ac4dbc767844c1247817e65fe09196" x="872.148148" y="163.187929"/>
<use style="fill: #ffffff; stroke: #3a617b; stroke-width: 5.000000; stroke-linejoin: round; stroke-linecap: butt;  opacity: 1.000000" xlink:href="#m08ac4dbc767844c1247817e65fe09196" x="919.333333" y="173.799602"/>
<use style="fill: #ffffff; stroke: #3a617b; stroke-width: 5.000000; stroke-linejoin: round; stroke-linecap: butt;  opacity: 1.000000" xlink:href="#m08ac4dbc767844c1247817e65fe09196" x="966.518519" y="155.330669"/>
<use style="fill: #ffffff; stroke: #3a617b; stroke-width: 5.000000; stroke-linejoin: round; stroke-linecap: butt;  opacity: 1.000000" xlink:href="#m08ac4dbc767844c1247817e65fe09196" x="1013.703704" y="191.639198"/>
<use style="fill: #ffffff; stroke: #3a617b; stroke-width: 5.000000; stroke-linejoin: round; stroke-linecap: butt;  opacity: 1.000000" xlink:href="#m08ac4dbc767844c1247817e65fe09196" x="1060.888889" y="173.808368"/>
<use style="fill: #ffffff; stroke: #3a617b; stroke-width: 5.000000; stroke-linejoin: round; stroke-linecap: butt;  opacity: 1.000000" xlink:href="#m08ac4dbc767844c1247817e65fe09196" x="1108.074074" y="116.625559"/>
<use style="fill: #ffffff; stroke: #3a617b; stroke-width: 5.000000; stroke-linejoin: round; stroke-linecap: butt;  opacity: 1.000000" xlink:href="#m08ac4dbc767844c1247817e65fe09196" x="1155.259259" y="137.510103"/>
<use style="fill: #ffffff; stroke: #3a617b; stroke-width: 5.000000; stroke-linejoin: round; stroke-linecap: butt;  opacity: 1.000000" xlink:href="#m08ac4dbc767844c1247817e65fe09196" x="1202.444444" y="159.301214"/>
<use style="fill: #ffffff; stroke: #3a617b; stroke-width: 5.000000; stroke-linejoin: round; stroke-linecap: butt;  opacity: 1.000000" xlink:href="#m08ac4dbc767844c1247817e65fe09196" x="1249.629630" y="291.324381"/>
</g></g>
<g id="matplotlib.axis1">
<g id="xtick1">
<g id="line2d2">
<path style="fill: none; stroke: #555555; stroke-width: 1.000000; stroke-linejoin: round; stroke-linecap: butt; stroke-dasharray: 1.000000,3.000000; stroke-dashoffset: 0.000000; opacity: 1.000000" clip-path="url(#pae88289662c10040f13a96717475d515)" d="M117.185185 564.000000L117.185185 48.000000"/>
</g>
<g id="line2d3">
<defs><path id="m30e32995789d870ad79a2e54c91cf9c6" d="M0.000000 0.000000L0.000000 -4.000000"/></defs>
<g ><use style="fill: none; stroke: #000000; stroke-width: 0.500000; stroke-linejoin: round; stroke-linecap: butt;  opacity: 1.000000" xlink:href="#m30e32995789d870ad79a2e54c91cf9c6" x="117.185185" y="564.000000"/>
</g></g>
<g id="text1">
<defs>
<path id="c_a7ec7f1581c48e6603ad54008c14207a" d="M50.343750 -8.453125l0.000000 8.453125l-47.312500 0.000000q-0.093750 -3.171875 1.015625 -6.109375q1.812500 -4.828125 5.781250 -9.515625q3.984375 -4.687500 11.515625 -10.843750q11.671875 -9.562500 15.765625 -15.156250q4.109375 -5.593750 4.109375 -10.578125q0.000000 -5.218750 -3.750000 -8.796875q-3.734375 -3.593750 -9.734375 -3.593750q-6.343750 0.000000 -10.156250 3.812500q-3.812500 3.796875 -3.859375 10.531250l-9.031250 -0.921875q0.921875 -10.109375 6.968750 -15.406250q6.062500 -5.296875 16.281250 -5.296875q10.296875 0.000000 16.296875 5.718750q6.015625 5.703125 6.015625 14.156250q0.000000 4.296875 -1.765625 8.453125q-1.750000 4.140625 -5.828125 8.734375q-4.078125 4.593750 -13.546875 12.593750q-7.921875 6.640625 -10.171875 9.015625q-2.234375 2.359375 -3.703125 4.750000z"/>
<path id="c_16502e6f65ec6361f518ececdfa42aec" d="M32.328125 -0.000000l0.000000 -17.140625l-31.062500 0.000000l0.000000 -8.062500l32.671875 -46.375000l7.171875 0.000000l0.000000 46.375000l9.671875 0.000000l0.000000 8.062500l-9.671875 0.000000l0.000000 17.140625zM32.328125 -25.203125l0.000000 -32.265625l-22.421875 32.265625z"/>
<path id="c_d41d8cd98f00b204e9800998ecf8427e" d=""/>
<path id="c_1ecd7401a5a4a519fba1c56f42bec99f" d="M6.593750 -0.000000l0.000000 -71.578125l8.781250 0.000000l0.000000 25.671875q6.156250 -7.125000 15.531250 -7.125000q5.765625 0.000000 10.015625 2.281250q4.250000 2.265625 6.078125 6.265625q1.828125 4.000000 1.828125 11.625000l0.000000 32.859375l-8.781250 0.000000l0.000000 -32.859375q0.000000 -6.593750 -2.859375 -9.593750q-2.859375 -3.000000 -8.078125 -3.000000q-3.906250 0.000000 -7.359375 2.031250q-3.437500 2.015625 -4.906250 5.484375q-1.468750 3.468750 -1.468750 9.562500l0.000000 28.375000z"/>
<path id="c_7b35dc0830c9a5ebd9c5012e37b3554f" d="M3.328125 -25.921875q0.000000 -14.406250 8.000000 -21.343750q6.687500 -5.765625 16.312500 -5.765625q10.687500 0.000000 17.468750 7.015625q6.796875 7.000000 6.796875 19.359375q0.000000 10.000000 -3.000000 15.750000q-3.000000 5.734375 -8.750000 8.906250q-5.734375 3.171875 -12.515625 3.171875q-10.890625 0.000000 -17.609375 -6.984375q-6.703125 -6.984375 -6.703125 -20.109375M12.359375 -25.921875q0.000000 9.953125 4.343750 14.906250q4.343750 4.953125 10.937500 4.953125q6.546875 0.000000 10.890625 -4.968750q4.343750 -4.984375 4.343750 -15.187500q0.000000 -9.625000 -4.375000 -14.578125q-4.375000 -4.953125 -10.859375 -4.953125q-6.593750 0.000000 -10.937500 4.937500q-4.343750 4.921875 -4.343750 14.890625"/>
<path id="c_558cebd09a7cc24c350fa94160e77b73" d="M40.578125 -0.000000l0.000000 -7.625000q-6.062500 8.796875 -16.453125 8.796875q-4.593750 0.000000 -8.578125 -1.750000q-3.968750 -1.765625 -5.906250 -4.421875q-1.921875 -2.671875 -2.703125 -6.531250q-0.546875 -2.578125 -0.546875 -8.203125l0.000000 -32.125000l8.796875 0.000000l0.000000 28.765625q0.000000 6.875000 0.531250 9.281250q0.828125 3.453125 3.515625 5.437500q2.687500 1.984375 6.640625 1.984375q3.953125 0.000000 7.421875 -2.031250q3.468750 -2.031250 4.906250 -5.515625q1.453125 -3.500000 1.453125 -10.140625l0.000000 -27.781250l8.781250 0.000000l0.000000 51.859375z"/>
<path id="c_0d849ef44aebdec16b8b34704b04b73f" d="M6.500000 -0.000000l0.000000 -51.859375l7.906250 0.000000l0.000000 7.859375q3.031250 -5.515625 5.593750 -7.265625q2.562500 -1.765625 5.640625 -1.765625q4.437500 0.000000 9.031250 2.828125l-3.031250 8.156250q-3.218750 -1.906250 -6.437500 -1.906250q-2.890625 0.000000 -5.187500 1.734375q-2.296875 1.734375 -3.265625 4.812500q-1.468750 4.687500 -1.468750 10.250000l0.000000 27.156250z"/>
<path id="c_37fe629f139bdb6cf8aa614b087f812c" d="M3.078125 -15.484375l8.687500 -1.359375q0.734375 5.218750 4.078125 8.000000q3.343750 2.781250 9.359375 2.781250q6.046875 0.000000 8.968750 -2.453125q2.937500 -2.468750 2.937500 -5.796875q0.000000 -2.968750 -2.593750 -4.687500q-1.796875 -1.171875 -8.984375 -2.968750q-9.656250 -2.453125 -13.390625 -4.234375q-3.734375 -1.781250 -5.671875 -4.921875q-1.921875 -3.156250 -1.921875 -6.968750q0.000000 -3.453125 1.578125 -6.406250q1.593750 -2.968750 4.328125 -4.921875q2.046875 -1.500000 5.578125 -2.546875q3.546875 -1.062500 7.609375 -1.062500q6.093750 0.000000 10.703125 1.765625q4.625000 1.750000 6.812500 4.765625q2.203125 3.000000 3.031250 8.015625l-8.593750 1.171875q-0.578125 -4.000000 -3.390625 -6.234375q-2.812500 -2.250000 -7.937500 -2.250000q-6.046875 0.000000 -8.640625 2.000000q-2.593750 2.000000 -2.593750 4.687500q0.000000 1.703125 1.078125 3.078125q1.078125 1.406250 3.375000 2.343750q1.312500 0.484375 7.765625 2.234375q9.328125 2.500000 13.000000 4.093750q3.687500 1.578125 5.781250 4.609375q2.109375 3.015625 2.109375 7.515625q0.000000 4.390625 -2.562500 8.281250q-2.562500 3.875000 -7.406250 6.000000q-4.828125 2.125000 -10.921875 2.125000q-10.109375 0.000000 -15.406250 -4.203125q-5.296875 -4.203125 -6.765625 -12.453125"/>
<path id="c_ddaa5e367218a470357296a7ba545dfe" d="M40.437500 -6.390625q-4.890625 4.140625 -9.406250 5.859375q-4.515625 1.703125 -9.687500 1.703125q-8.546875 0.000000 -13.140625 -4.171875q-4.593750 -4.171875 -4.593750 -10.671875q0.000000 -3.812500 1.734375 -6.953125q1.734375 -3.156250 4.546875 -5.062500q2.812500 -1.906250 6.328125 -2.875000q2.578125 -0.687500 7.812500 -1.328125q10.640625 -1.265625 15.671875 -3.015625q0.046875 -1.812500 0.046875 -2.296875q0.000000 -5.375000 -2.500000 -7.578125q-3.359375 -2.968750 -10.000000 -2.968750q-6.203125 0.000000 -9.156250 2.171875q-2.953125 2.171875 -4.375000 7.687500l-8.593750 -1.171875q1.171875 -5.515625 3.859375 -8.906250q2.687500 -3.390625 7.765625 -5.218750q5.078125 -1.843750 11.765625 -1.843750q6.640625 0.000000 10.781250 1.562500q4.156250 1.562500 6.109375 3.937500q1.953125 2.359375 2.734375 5.984375q0.437500 2.234375 0.437500 8.093750l0.000000 11.718750q0.000000 12.265625 0.562500 15.515625q0.562500 3.234375 2.234375 6.218750l-9.187500 0.000000q-1.359375 -2.734375 -1.750000 -6.390625M39.703125 -26.031250q-4.796875 1.953125 -14.359375 3.328125q-5.421875 0.781250 -7.671875 1.765625q-2.234375 0.968750 -3.468750 2.843750q-1.218750 1.875000 -1.218750 4.171875q0.000000 3.515625 2.656250 5.859375q2.671875 2.343750 7.796875 2.343750q5.078125 0.000000 9.031250 -2.218750q3.953125 -2.218750 5.812500 -6.078125q1.421875 -2.984375 1.421875 -8.781250z"/>
<path id="c_942af35282b351d80557a23c0c16bb49" d="M4.984375 4.296875l8.546875 1.265625q0.531250 3.953125 2.968750 5.765625q3.281250 2.437500 8.937500 2.437500q6.109375 0.000000 9.421875 -2.437500q3.328125 -2.437500 4.500000 -6.828125q0.687500 -2.687500 0.625000 -11.281250q-5.750000 6.781250 -14.343750 6.781250q-10.703125 0.000000 -16.562500 -7.718750q-5.859375 -7.718750 -5.859375 -18.500000q0.000000 -7.421875 2.687500 -13.687500q2.687500 -6.281250 7.781250 -9.703125q5.109375 -3.421875 12.000000 -3.421875q9.171875 0.000000 15.140625 7.421875l0.000000 -6.250000l8.093750 0.000000l0.000000 44.828125q0.000000 12.109375 -2.468750 17.156250q-2.453125 5.062500 -7.812500 7.984375q-5.343750 2.937500 -13.156250 2.937500q-9.265625 0.000000 -14.984375 -4.171875q-5.718750 -4.171875 -5.515625 -12.578125M12.250000 -26.859375q0.000000 10.203125 4.046875 14.890625q4.062500 4.687500 10.171875 4.687500q6.046875 0.000000 10.140625 -4.656250q4.109375 -4.671875 4.109375 -14.625000q0.000000 -9.515625 -4.218750 -14.343750q-4.218750 -4.843750 -10.187500 -4.843750q-5.859375 0.000000 -9.968750 4.765625q-4.093750 4.750000 -4.093750 14.125000"/>
</defs>
<g style="fill: #000000; opacity: 1.000000" transform="translate(12.794560,593.875000)scale(0.360000)">
<use xlink:href="#c_a7ec7f1581c48e6603ad54008c14207a"/>
<use xlink:href="#c_16502e6f65ec6361f518ececdfa42aec" x="55.615234"/>
<use xlink:href="#c_d41d8cd98f00b204e9800998ecf8427e" x="111.230469"/>
<use xlink:href="#c_1ecd7401a5a4a519fba1c56f42bec99f" x="139.013672"/>
<use xlink:href="#c_7b35dc0830c9a5ebd9c5012e37b3554f" x="194.628906"/>
<use xlink:href="#c_558cebd09a7cc24c350fa94160e77b73" x="250.244141"/>
<use xlink:href="#c_0d849ef44aebdec16b8b34704b04b73f" x="305.859375"/>
<use xlink:href="#c_37fe629f139bdb6cf8aa614b087f812c" x="339.160156"/>
<use xlink:href="#c_d41d8cd98f00b204e9800998ecf8427e" x="389.160156"/>
<use xlink:href="#c_ddaa5e367218a470357296a7ba545dfe" x="416.943359"/>
<use xlink:href="#c_942af35282b351d80557a23c0c16bb49" x="472.558594"/>
<use xlink:href="#c_7b35dc0830c9a5ebd9c5012e37b3554f" x="528.173828"/>
</g>
</g>
</g>
<g id="xtick2">
<g id="line2d4">
<path style="fill: none; stroke: #555555; stroke-width: 1.000000; stroke-linejoin: round; stroke-linecap: butt; stroke-dasharray: 1.000000,3.000000; stroke-dashoffset: 0.000000; opacity: 1.000000" clip-path="url(#pae88289662c10040f13a96717475d515)" d="M494.666667 564.000000L494.666667 48.000000"/>
</g>
<g id="line2d5">
<g ><use style="fill: none; stroke: #000000; stroke-width: 0.500000; stroke-linejoin: round; stroke-linecap: butt;  opacity: 1.000000" xlink:href="#m30e32995789d870ad79a2e54c91cf9c6" x="494.666667" y="564.000000"/>
</g></g>
<g id="text2">
<defs>
<path id="c_72c59cf671978aab4f9757f107511077" d="M37.250000 -0.000000l-8.781250 0.000000l0.000000 -56.000000q-3.171875 3.015625 -8.328125 6.046875q-5.156250 3.031250 -9.250000 4.546875l0.000000 -8.500000q7.375000 -3.468750 12.890625 -8.390625q5.515625 -4.937500 7.812500 -9.578125l5.656250 0.000000z"/>
<path id="c_365c0c1086255689078be262ab150854" d="M49.750000 -54.046875l-8.734375 0.671875q-1.171875 -5.171875 -3.312500 -7.515625q-3.578125 -3.765625 -8.796875 -3.765625q-4.203125 0.000000 -7.375000 2.343750q-4.140625 3.031250 -6.546875 8.843750q-2.390625 5.812500 -2.484375 16.546875q3.171875 -4.828125 7.765625 -7.171875q4.593750 -2.343750 9.625000 -2.343750q8.781250 0.000000 14.953125 6.468750q6.187500 6.468750 6.187500 16.718750q0.000000 6.750000 -2.906250 12.531250q-2.906250 5.781250 -7.984375 8.859375q-5.078125 3.078125 -11.531250 3.078125q-10.984375 0.000000 -17.921875 -8.078125q-6.921875 -8.078125 -6.921875 -26.640625q0.000000 -20.750000 7.656250 -30.171875q6.687500 -8.203125 18.015625 -8.203125q8.453125 0.000000 13.843750 4.734375q5.406250 4.734375 6.468750 13.093750M13.875000 -23.187500q0.000000 4.531250 1.921875 8.687500q1.921875 4.140625 5.390625 6.328125q3.468750 2.171875 7.281250 2.171875q5.562500 0.000000 9.562500 -4.484375q4.015625 -4.500000 4.015625 -12.218750q0.000000 -7.421875 -3.968750 -11.687500q-3.953125 -4.281250 -9.953125 -4.281250q-5.953125 0.000000 -10.109375 4.281250q-4.140625 4.265625 -4.140625 11.203125"/>
</defs>
<g style="fill: #000000; opacity: 1.000000" transform="translate(390.276042,593.875000)scale(0.360000)">
<use xlink:href="#c_72c59cf671978aab4f9757f107511077"/>
<use xlink:href="#c_365c0c1086255689078be262ab150854" x="55.615234"/>
<use xlink:href="#c_d41d8cd98f00b204e9800998ecf8427e" x="111.230469"/>
<use xlink:href="#c_1ecd7401a5a4a519fba1c56f42bec99f" x="139.013672"/>
<use xlink:href="#c_7b35dc0830c9a5ebd9c5012e37b3554f" x="194.628906"/>
<use xlink:href="#c_558cebd09a7cc24c350fa94160e77b73" x="250.244141"/>
<use xlink:href="#c_0d849ef44aebdec16b8b34704b04b73f" x="305.859375"/>
<use xlink:href="#c_37fe629f139bdb6cf8aa614b087f812c" x="339.160156"/>
<use xlink:href="#c_d41d8cd98f00b204e9800998ecf8427e" x="389.160156"/>
<use xlink:href="#c_ddaa5e367218a470357296a7ba545dfe" x="416.943359"/>
<use xlink:href="#c_942af35282b351d80557a23c0c16bb49" x="472.558594"/>
<use xlink:href="#c_7b35dc0830c9a5ebd9c5012e37b3554f" x="528.173828"/>
</g>
</g>
</g>
<g id="xtick3">
<g id="line2d6">
<path style="fill: none; stroke: #555555; stroke-width: 1.000000; stroke-linejoin: round; stroke-linecap: butt; stroke-dasharray: 1.000000,3.000000; stroke-dashoffset: 0.000000; opacity: 1.000000" clip-path="url(#pae88289662c10040f13a96717475d515)" d="M872.148148 564.000000L872.148148 48.000000"/>
</g>
<g id="line2d7">
<g ><use style="fill: none; stroke: #000000; stroke-width: 0.500000; stroke-linejoin: round; stroke-linecap: butt;  opacity: 1.000000" xlink:href="#m30e32995789d870ad79a2e54c91cf9c6" x="872.148148" y="564.000000"/>
</g></g>
<g id="text3">
<defs>
<path id="c_9e21411eefed339632dc4e534c173910" d="M17.671875 -38.812500q-5.468750 -2.015625 -8.109375 -5.718750q-2.625000 -3.718750 -2.625000 -8.890625q0.000000 -7.812500 5.609375 -13.125000q5.625000 -5.328125 14.937500 -5.328125q9.375000 0.000000 15.093750 5.453125q5.718750 5.437500 5.718750 13.250000q0.000000 4.984375 -2.625000 8.671875q-2.609375 3.671875 -7.921875 5.687500q6.593750 2.140625 10.031250 6.937500q3.437500 4.781250 3.437500 11.421875q0.000000 9.171875 -6.500000 15.421875q-6.484375 6.250000 -17.078125 6.250000q-10.593750 0.000000 -17.093750 -6.265625q-6.500000 -6.281250 -6.500000 -15.656250q0.000000 -6.984375 3.546875 -11.687500q3.546875 -4.718750 10.078125 -6.421875M15.921875 -53.718750q0.000000 5.078125 3.265625 8.312500q3.281250 3.218750 8.500000 3.218750q5.078125 0.000000 8.328125 -3.187500q3.250000 -3.203125 3.250000 -7.843750q0.000000 -4.843750 -3.359375 -8.140625q-3.343750 -3.296875 -8.312500 -3.296875q-5.031250 0.000000 -8.359375 3.234375q-3.312500 3.218750 -3.312500 7.703125M13.093750 -20.656250q0.000000 3.765625 1.781250 7.281250q1.781250 3.515625 5.296875 5.453125q3.515625 1.921875 7.562500 1.921875q6.296875 0.000000 10.390625 -4.046875q4.109375 -4.062500 4.109375 -10.312500q0.000000 -6.343750 -4.218750 -10.500000q-4.218750 -4.156250 -10.578125 -4.156250q-6.203125 0.000000 -10.281250 4.109375q-4.062500 4.093750 -4.062500 10.250000"/>
</defs>
<g style="fill: #000000; opacity: 1.000000" transform="translate(777.765336,593.875000)scale(0.360000)">
<use xlink:href="#c_9e21411eefed339632dc4e534c173910"/>
<use xlink:href="#c_d41d8cd98f00b204e9800998ecf8427e" x="55.615234"/>
<use xlink:href="#c_1ecd7401a5a4a519fba1c56f42bec99f" x="83.398438"/>
<use xlink:href="#c_7b35dc0830c9a5ebd9c5012e37b3554f" x="139.013672"/>
<use xlink:href="#c_558cebd09a7cc24c350fa94160e77b73" x="194.628906"/>
<use xlink:href="#c_0d849ef44aebdec16b8b34704b04b73f" x="250.244141"/>
<use xlink:href="#c_37fe629f139bdb6cf8aa614b087f812c" x="283.544922"/>
<use xlink:href="#c_d41d8cd98f00b204e9800998ecf8427e" x="333.544922"/>
<use xlink:href="#c_ddaa5e367218a470357296a7ba545dfe" x="361.328125"/>
<use xlink:href="#c_942af35282b351d80557a23c0c16bb49" x="416.943359"/>
<use xlink:href="#c_7b35dc0830c9a5ebd9c5012e37b3554f" x="472.558594"/>
</g>
</g>
</g>
<g id="xtick4">
<g id="line2d8">
<path style="fill: none; stroke: #555555; stroke-width: 1.000000; stroke-linejoin: round; stroke-linecap: butt; stroke-dasharray: 1.000000,3.000000; stroke-dashoffset: 0.000000; opacity: 1.000000" clip-path="url(#pae88289662c10040f13a96717475d515)" d="M1249.629630 564.000000L1249.629630 48.000000"/>
</g>
<g id="line2d9">
<g ><use style="fill: none; stroke: #000000; stroke-width: 0.500000; stroke-linejoin: round; stroke-linecap: butt;  opacity: 1.000000" xlink:href="#m30e32995789d870ad79a2e54c91cf9c6" x="1249.629630" y="564.000000"/>
</g></g>
<g id="text4">
<defs>
<path id="c_c63e313c3da876077b62561e94932799" d="M4.156250 -35.296875q0.000000 -12.703125 2.609375 -20.437500q2.609375 -7.750000 7.750000 -11.937500q5.156250 -4.203125 12.968750 -4.203125q5.765625 0.000000 10.109375 2.328125q4.343750 2.312500 7.171875 6.687500q2.843750 4.359375 4.453125 10.640625q1.609375 6.265625 1.609375 16.921875q0.000000 12.593750 -2.593750 20.328125q-2.578125 7.734375 -7.734375 11.968750q-5.140625 4.218750 -13.015625 4.218750q-10.343750 0.000000 -16.250000 -7.421875q-7.078125 -8.937500 -7.078125 -29.093750M13.187500 -35.296875q0.000000 17.625000 4.125000 23.468750q4.125000 5.828125 10.171875 5.828125q6.062500 0.000000 10.187500 -5.859375q4.125000 -5.859375 4.125000 -23.437500q0.000000 -17.687500 -4.125000 -23.484375q-4.125000 -5.812500 -10.281250 -5.812500q-6.046875 0.000000 -9.671875 5.125000q-4.531250 6.531250 -4.531250 24.171875"/>
</defs>
<g style="fill: #000000; opacity: 1.000000" transform="translate(1155.246817,593.875000)scale(0.360000)">
<use xlink:href="#c_c63e313c3da876077b62561e94932799"/>
<use xlink:href="#c_d41d8cd98f00b204e9800998ecf8427e" x="55.615234"/>
<use xlink:href="#c_1ecd7401a5a4a519fba1c56f42bec99f" x="83.398438"/>
<use xlink:href="#c_7b35dc0830c9a5ebd9c5012e37b3554f" x="139.013672"/>
<use xlink:href="#c_558cebd09a7cc24c350fa94160e77b73" x="194.628906"/>
<use xlink:href="#c_0d849ef44aebdec16b8b34704b04b73f" x="250.244141"/>
<use xlink:href="#c_37fe629f139bdb6cf8aa614b087f812c" x="283.544922"/>
<use xlink:href="#c_d41d8cd98f00b204e9800998ecf8427e" x="333.544922"/>
<use xlink:href="#c_ddaa5e367218a470357296a7ba545dfe" x="361.328125"/>
<use xlink:href="#c_942af35282b351d80557a23c0c16bb49" x="416.943359"/>
<use xlink:href="#c_7b35dc0830c9a5ebd9c5012e37b3554f" x="472.558594"/>
</g>
</g>
</g>
</g>
<g id="matplotlib.axis2">
<g id="ytick1">
<g id="line2d10">
<path style="fill: none; stroke: #555555; stroke-width: 1.000000; stroke-linejoin: round; stroke-linecap: square;  opacity: 1.000000" clip-path="url(#pae88289662c10040f13a96717475d515)" d="M70.000000 559.796470L1344.000000 559.796470"/>
</g>
<g id="text5">
<g style="fill: #000000; opacity: 1.000000" transform="translate(49.203125,572.515220)scale(0.360000)">
<use xlink:href="#c_c63e313c3da876077b62561e94932799"/>
</g>
</g>
</g>
<g id="ytick2">
<g id="line2d11">
<path style="fill: none; stroke: #555555; stroke-width: 1.000000; stroke-linejoin: round; stroke-linecap: square;  opacity: 1.000000" clip-path="url(#pae88289662c10040f13a96717475d515)" d="M70.000000 475.725879L1344.000000 475.725879"/>
</g>
<g id="text6">
<g style="fill: #000000; opacity: 1.000000" transform="translate(31.609375,488.444629)scale(0.360000)">
<use xlink:href="#c_72c59cf671978aab4f9757f107511077"/>
<use xlink:href="#c_c63e313c3da876077b62561e94932799" x="55.615234"/>
</g>
</g>
</g>
<g id="ytick3">
<g id="line2d12">
<path style="fill: none; stroke: #555555; stroke-width: 1.000000; stroke-linejoin: round; stroke-linecap: square;  opacity: 1.000000" clip-path="url(#pae88289662c10040f13a96717475d515)" d="M70.000000 391.655289L1344.000000 391.655289"/>
</g>
<g id="text7">
<g style="fill: #000000; opacity: 1.000000" transform="translate(28.750000,404.374039)scale(0.360000)">
<use xlink:href="#c_a7ec7f1581c48e6603ad54008c14207a"/>
<use xlink:href="#c_c63e313c3da876077b62561e94932799" x="55.615234"/>
</g>
</g>
</g>
<g id="ytick4">
<g id="line2d13">
<path style="fill: none; stroke: #555555; stroke-width: 1.000000; stroke-linejoin: round; stroke-linecap: square;  opacity: 1.000000" clip-path="url(#pae88289662c10040f13a96717475d515)" d="M70.000000 307.584698L1344.000000 307.584698"/>
</g>
<g id="text8">
<defs>
<path id="c_fda0a0109e2b7adfa5e482b9b2d320ee" d="M4.203125 -18.890625l8.781250 -1.171875q1.515625 7.468750 5.156250 10.765625q3.640625 3.296875 8.859375 3.296875q6.203125 0.000000 10.468750 -4.296875q4.281250 -4.296875 4.281250 -10.656250q0.000000 -6.046875 -3.953125 -9.968750q-3.953125 -3.937500 -10.062500 -3.937500q-2.484375 0.000000 -6.203125 0.968750l0.984375 -7.718750q0.875000 0.109375 1.406250 0.109375q5.625000 0.000000 10.109375 -2.921875q4.500000 -2.937500 4.500000 -9.046875q0.000000 -4.828125 -3.281250 -8.000000q-3.265625 -3.187500 -8.437500 -3.187500q-5.125000 0.000000 -8.546875 3.234375q-3.421875 3.218750 -4.390625 9.656250l-8.796875 -1.562500q1.609375 -8.828125 7.312500 -13.687500q5.718750 -4.859375 14.218750 -4.859375q5.859375 0.000000 10.781250 2.515625q4.937500 2.515625 7.546875 6.859375q2.625000 4.343750 2.625000 9.234375q0.000000 4.625000 -2.500000 8.437500q-2.484375 3.812500 -7.359375 6.062500q6.343750 1.453125 9.859375 6.078125q3.515625 4.609375 3.515625 11.546875q0.000000 9.375000 -6.843750 15.890625q-6.828125 6.515625 -17.281250 6.515625q-9.421875 0.000000 -15.656250 -5.609375q-6.218750 -5.625000 -7.093750 -14.546875"/>
</defs>
<g style="fill: #000000; opacity: 1.000000" transform="translate(29.203125,320.295635)scale(0.360000)">
<use xlink:href="#c_fda0a0109e2b7adfa5e482b9b2d320ee"/>
<use xlink:href="#c_c63e313c3da876077b62561e94932799" x="55.615234"/>
</g>
</g>
</g>
<g id="ytick5">
<g id="line2d14">
<path style="fill: none; stroke: #555555; stroke-width: 1.000000; stroke-linejoin: round; stroke-linecap: square;  opacity: 1.000000" clip-path="url(#pae88289662c10040f13a96717475d515)" d="M70.000000 223.514107L1344.000000 223.514107"/>
</g>
<g id="text9">
<g style="fill: #000000; opacity: 1.000000" transform="translate(28.140625,236.232857)scale(0.360000)">
<use xlink:href="#c_16502e6f65ec6361f518ececdfa42aec"/>
<use xlink:href="#c_c63e313c3da876077b62561e94932799" x="55.615234"/>
</g>
</g>
</g>
<g id="ytick6">
<g id="line2d15">
<path style="fill: none; stroke: #555555; stroke-width: 1.000000; stroke-linejoin: round; stroke-linecap: square;  opacity: 1.000000" clip-path="url(#pae88289662c10040f13a96717475d515)" d="M70.000000 139.443516L1344.000000 139.443516"/>
</g>
<g id="text10">
<defs>
<path id="c_75f775bc9f9a6adfab5172fd551e47e0" d="M4.156250 -18.750000l9.218750 -0.781250q1.031250 6.734375 4.765625 10.140625q3.734375 3.390625 9.015625 3.390625q6.343750 0.000000 10.734375 -4.781250q4.390625 -4.796875 4.390625 -12.703125q0.000000 -7.515625 -4.218750 -11.859375q-4.218750 -4.359375 -11.062500 -4.359375q-4.250000 0.000000 -7.671875 1.937500q-3.406250 1.921875 -5.359375 5.000000l-8.250000 -1.078125l6.921875 -36.765625l35.609375 0.000000l0.000000 8.406250l-28.578125 0.000000l-3.843750 19.234375q6.437500 -4.500000 13.515625 -4.500000q9.375000 0.000000 15.812500 6.500000q6.453125 6.500000 6.453125 16.703125q0.000000 9.718750 -5.656250 16.796875q-6.890625 8.687500 -18.796875 8.687500q-9.765625 0.000000 -15.953125 -5.468750q-6.171875 -5.468750 -7.046875 -14.500000"/>
</defs>
<g style="fill: #000000; opacity: 1.000000" transform="translate(29.187500,152.162266)scale(0.360000)">
<use xlink:href="#c_75f775bc9f9a6adfab5172fd551e47e0"/>
<use xlink:href="#c_c63e313c3da876077b62561e94932799" x="55.615234"/>
</g>
</g>
</g>
<g id="ytick7">
<g id="line2d16">
<path style="fill: none; stroke: #555555; stroke-width: 1.000000; stroke-linejoin: round; stroke-linecap: square;  opacity: 1.000000" clip-path="url(#pae88289662c10040f13a96717475d515)" d="M70.000000 55.372925L1344.000000 55.372925"/>
</g>
<g id="text11">
<g style="fill: #000000; opacity: 1.000000" transform="translate(29.046875,68.091675)scale(0.360000)">
<use xlink:href="#c_365c0c1086255689078be262ab150854"/>
<use xlink:href="#c_c63e313c3da876077b62561e94932799" x="55.615234"/>
</g>
</g>
</g>
</g>
<g id="text12">
<defs>
<path id="c_a2714bbf4c498d92dd39c98d755309c1" d="M25.921875 -0.000000l0.000000 -63.140625l-23.578125 0.000000l0.000000 -8.437500l56.734375 0.000000l0.000000 8.437500l-23.671875 0.000000l0.000000 63.140625z"/>
<path id="c_1a87b4467c8f63e0067e787cd6b36e0e" d="M7.328125 -0.000000l0.000000 -71.578125l26.859375 0.000000q8.203125 0.000000 13.156250 2.171875q4.953125 2.171875 7.750000 6.687500q2.812500 4.515625 2.812500 9.453125q0.000000 4.578125 -2.484375 8.640625q-2.484375 4.046875 -7.515625 6.531250q6.484375 1.906250 9.968750 6.500000q3.500000 4.593750 3.500000 10.843750q0.000000 5.031250 -2.125000 9.359375q-2.125000 4.312500 -5.250000 6.656250q-3.125000 2.343750 -7.843750 3.546875q-4.703125 1.187500 -11.531250 1.187500zM16.796875 -41.500000l15.484375 0.000000q6.296875 0.000000 9.031250 -0.828125q3.609375 -1.078125 5.437500 -3.562500q1.828125 -2.500000 1.828125 -6.265625q0.000000 -3.562500 -1.703125 -6.265625q-1.703125 -2.718750 -4.890625 -3.718750q-3.171875 -1.000000 -10.875000 -1.000000l-14.312500 0.000000zM16.796875 -8.453125l17.828125 0.000000q4.578125 0.000000 6.437500 -0.343750q3.281250 -0.578125 5.468750 -1.937500q2.203125 -1.375000 3.609375 -3.984375q1.421875 -2.609375 1.421875 -6.031250q0.000000 -4.000000 -2.046875 -6.953125q-2.046875 -2.968750 -5.687500 -4.156250q-3.640625 -1.203125 -10.484375 -1.203125l-16.546875 0.000000z"/>
<path id="c_e05063379f1a33c50264a9baea33b87d" d="M6.203125 19.968750l-0.984375 -8.250000q2.890625 0.781250 5.031250 0.781250q2.937500 0.000000 4.687500 -0.984375q1.765625 -0.968750 2.890625 -2.718750q0.828125 -1.328125 2.687500 -6.546875q0.234375 -0.734375 0.781250 -2.156250l-19.687500 -51.953125l9.468750 0.000000l10.796875 30.031250q2.093750 5.718750 3.765625 12.015625q1.515625 -6.062500 3.609375 -11.812500l11.078125 -30.234375l8.796875 0.000000l-19.734375 52.734375q-3.171875 8.546875 -4.921875 11.765625q-2.343750 4.359375 -5.375000 6.375000q-3.031250 2.031250 -7.234375 2.031250q-2.531250 0.000000 -5.656250 -1.078125"/>
<path id="c_49875a71faaf72e623dfe75bd38d2a1b" d="M25.781250 -7.859375l1.265625 7.765625q-3.703125 0.781250 -6.640625 0.781250q-4.781250 0.000000 -7.421875 -1.515625q-2.625000 -1.515625 -3.703125 -3.984375q-1.078125 -2.468750 -1.078125 -10.375000l0.000000 -29.828125l-6.437500 0.000000l0.000000 -6.843750l6.437500 0.000000l0.000000 -12.843750l8.734375 -5.265625l0.000000 18.109375l8.843750 0.000000l0.000000 6.843750l-8.843750 0.000000l0.000000 30.312500q0.000000 3.765625 0.468750 4.843750q0.468750 1.062500 1.515625 1.703125q1.046875 0.640625 3.000000 0.640625q1.468750 0.000000 3.859375 -0.343750"/>
<path id="c_96d0a1ecddf0bdf50a9ef92886b6d00f" d="M42.093750 -16.703125l9.078125 1.125000q-2.140625 7.953125 -7.953125 12.359375q-5.812500 4.390625 -14.843750 4.390625q-11.375000 0.000000 -18.046875 -7.000000q-6.671875 -7.015625 -6.671875 -19.656250q0.000000 -13.093750 6.734375 -20.312500q6.750000 -7.234375 17.484375 -7.234375q10.406250 0.000000 17.000000 7.078125q6.593750 7.078125 6.593750 19.921875q0.000000 0.781250 -0.046875 2.343750l-38.671875 0.000000q0.484375 8.546875 4.828125 13.093750q4.343750 4.531250 10.843750 4.531250q4.828125 0.000000 8.250000 -2.531250q3.421875 -2.546875 5.421875 -8.109375M13.234375 -30.906250l28.953125 0.000000q-0.578125 -6.546875 -3.312500 -9.812500q-4.203125 -5.078125 -10.890625 -5.078125q-6.062500 0.000000 -10.187500 4.046875q-4.125000 4.046875 -4.562500 10.843750"/>
<path id="c_a1de2651640294cc71fd7ece9f6eee39" d="M0.000000 1.218750l20.750000 -74.015625l7.031250 0.000000l-20.703125 74.015625z"/>
<path id="c_1e1fa5b67a530de837491c83e91056d3" d="M8.015625 -0.000000l0.000000 -71.578125l9.468750 0.000000l0.000000 29.390625l37.203125 0.000000l0.000000 -29.390625l9.468750 0.000000l0.000000 71.578125l-9.468750 0.000000l0.000000 -33.734375l-37.203125 0.000000l0.000000 33.734375z"/>
</defs>
<g style="fill: #000000; opacity: 1.000000" transform="translate(6.300000,30.101875)scale(0.360000)">
<use xlink:href="#c_a2714bbf4c498d92dd39c98d755309c1"/>
<use xlink:href="#c_1a87b4467c8f63e0067e787cd6b36e0e" x="61.083984"/>
<use xlink:href="#c_e05063379f1a33c50264a9baea33b87d" x="127.783203"/>
<use xlink:href="#c_49875a71faaf72e623dfe75bd38d2a1b" x="177.783203"/>
<use xlink:href="#c_96d0a1ecddf0bdf50a9ef92886b6d00f" x="205.566406"/>
<use xlink:href="#c_37fe629f139bdb6cf8aa614b087f812c" x="261.181641"/>
<use xlink:href="#c_a1de2651640294cc71fd7ece9f6eee39" x="311.181641"/>
<use xlink:href="#c_1e1fa5b67a530de837491c83e91056d3" x="338.964844"/>
<use xlink:href="#c_7b35dc0830c9a5ebd9c5012e37b3554f" x="411.181641"/>
<use xlink:href="#c_558cebd09a7cc24c350fa94160e77b73" x="466.796875"/>
<use xlink:href="#c_0d849ef44aebdec16b8b34704b04b73f" x="522.412109"/>
</g>
</g>
</g>
</g>
</svg>
